<svg width="67" height="67" viewBox="0 0 67 67" fill="none" xmlns="http://www.w3.org/2000/svg">
<path fill-rule="evenodd" clip-rule="evenodd" d="M53.0828 33.0114C52.0314 33.0114 51.5057 33.5608 51.5057 34.6217V59.7244H39.208V49.6833C39.208 48.6034 38.6823 47.8077 37.6496 47.8077H28.9755C27.9241 47.8077 26.8914 48.6034 26.8914 49.6833V59.7244H14.8378V35.6637C14.8378 34.3376 14.0492 33.826 13.2419 33.826C12.1905 33.826 11.4019 34.3376 11.4019 35.6637V61.8273C11.4019 62.623 12.1905 63.4187 13.2419 63.4187H28.9755C29.764 63.4187 30.2898 62.623 30.2898 61.8273V51.2558H35.8097V61.8273C35.8097 62.623 36.5794 63.4187 37.6496 63.4187H53.1016C54.153 63.4187 54.9416 62.623 54.9416 61.8273V34.6028C54.9416 33.5418 54.153 32.9924 53.1016 32.9924L53.0828 33.0114ZM62.5268 34.3376C51.2429 22.1936 44.4275 14.8049 34.195 3.96812C33.9509 3.70288 33.6693 3.4187 33.1436 3.4187C32.6179 3.4187 32.355 3.68394 31.8293 3.96812L3.81672 34.0723C3.55387 34.3186 3.29102 34.8491 3.29102 35.3985C3.29102 35.9479 3.53509 36.1753 3.81672 36.4594C4.5865 37.5204 5.63792 37.5204 6.1824 36.4594L33.1624 7.90875L60.1611 36.9899C60.4052 37.2362 60.6868 37.5204 61.2125 37.5204C61.7382 37.5204 62.2639 37.2551 62.5268 36.9899C63.2965 36.1942 63.2965 34.868 62.5268 34.3376Z" fill="#2C514E"/>
</svg>
