<svg width="47" height="79" viewBox="0 0 47 79" fill="none" xmlns="http://www.w3.org/2000/svg">
<g clip-path="url(#clip0_2568_178)">
<path d="M46.6886 30.7702C46.6886 30.7702 46.6886 30.676 46.6886 30.6222C46.6886 30.5549 46.7021 30.4877 46.6886 30.4204C46.0953 26.7341 45.1918 25.5771 43.0748 25.1466C42.5489 15.6754 35.618 8.00694 26.3947 6.86339C26.2464 4.22651 25.8554 1.18603 23.8462 0.365372C22.0798 -0.361114 19.6661 0.190477 17.8322 0.365372C15.1219 0.620988 12.4924 1.10531 9.863 1.85871C9.32362 2.00669 9.13484 2.50447 9.20227 3.0157C9.39105 4.32069 9.70119 5.51805 10.1462 6.75576C10.3349 7.26699 10.7664 7.50916 11.3058 7.41498C13.9353 6.95756 16.5782 6.5136 19.2076 6.05618C19.2615 6.47324 19.329 6.87684 19.3829 7.2939C11.2654 9.39264 5.25137 16.9535 4.46928 25.3484C1.69152 25.9 1.09821 27.3126 0.842006 31.1738C0.815037 31.4832 0.922912 31.7119 1.09821 31.8599C1.24653 32.0348 1.47577 32.129 1.78591 32.1155C2.66239 32.0617 3.53886 32.0214 4.40186 31.981C4.40186 32.0348 4.38837 32.0886 4.40186 32.1424C5.95255 42.7438 7.48976 53.3585 9.04045 63.9733C9.59331 67.7537 10.1327 71.5341 10.7125 75.3146C10.9148 76.6734 10.7799 77.7496 11.9531 78.4761C13.5172 79.4313 17.4277 78.7856 19.1806 78.799C23.172 78.8259 27.1768 78.7587 31.1682 78.6779C32.4357 78.651 35.5641 79.1757 36.6698 78.4223C38.3148 77.3057 38.18 72.5566 38.4497 70.8884C40.5532 57.852 42.2118 44.7483 43.1827 31.5774C44.0457 31.5774 44.9222 31.5908 45.7851 31.6043C46.311 31.6043 46.5942 31.2545 46.6616 30.8509C46.6616 30.824 46.6616 30.7971 46.6751 30.7702H46.6886ZM41.187 24.9179C40.5667 24.8776 39.8925 24.8507 39.1239 24.8238C39.0835 22.4963 38.2879 21.0433 35.8203 20.3303C35.5641 20.2496 35.2674 20.2092 34.9977 20.142C36.481 16.6575 32.6245 15.2987 28.9028 14.774C29.1186 13.469 28.8758 12.1371 28.0803 11.0205C27.7567 10.5631 27.1903 9.94423 26.5565 9.6079C26.5296 9.35228 26.5161 9.06976 26.4891 8.76033C34.5258 9.93078 40.5937 16.6037 41.16 24.9179H41.187ZM10.5777 24.7968C9.79557 21.7833 16.3894 21.7295 17.8457 21.6891C19.9358 21.6218 22.0123 21.6756 24.1024 21.7295C26.7318 21.7967 36.3866 20.8012 37.1687 24.7699C31.5323 24.5681 25.8823 24.4471 20.2459 24.5412C17.0232 24.595 13.8004 24.6489 10.5911 24.8103L10.5777 24.7968ZM33.0425 19.8191C29.2804 19.3886 24.9249 19.8191 21.4325 19.7787C19.8549 19.7653 17.1175 19.6307 14.569 19.9132C12.007 15.0162 35.2809 14.9624 33.056 19.8191H33.0425ZM24.7227 9.94423C24.7227 9.94423 24.7497 10.0115 24.7631 10.0519C24.7362 10.0922 24.7092 10.1326 24.6687 10.1595C24.1429 10.6976 23.7788 11.0071 23.0237 11.2223C22.6596 11.3299 22.282 11.3972 21.9045 11.4779C21.7831 10.5765 21.6483 9.66171 21.5269 8.76033C22.1067 8.66615 22.7 8.61234 23.3068 8.58543C23.7248 8.57198 24.1429 8.58543 24.5474 8.59889C24.6013 9.04285 24.6687 9.50027 24.7227 9.94423ZM23.5226 13.0385C24.3047 12.8367 25.0868 12.5138 25.6666 11.9353C25.7879 11.8143 25.8823 11.6663 25.9767 11.5183C26.125 11.6394 26.2734 11.747 26.4082 11.895C27.069 12.6753 27.1903 13.617 27.015 14.5588C25.734 14.4511 24.6013 14.4377 23.8732 14.4242C23.1046 14.4242 21.891 14.4242 20.5426 14.5184C20.0436 13.617 23.0506 13.1462 23.5091 13.0251L23.5226 13.0385ZM20.9471 4.71084C20.8662 4.1727 20.2324 3.9709 19.7874 4.05162C17.1041 4.50904 14.4207 4.96645 11.7508 5.42387C11.5485 4.76465 11.3732 4.10543 11.2384 3.43276C14.5286 2.55829 17.9671 2.00669 21.3786 1.95288C23.5496 1.92597 23.7653 2.6121 24.0215 4.56285C24.1159 5.27588 24.2103 6.00237 24.3047 6.7154C23.9676 6.7154 23.6439 6.6885 23.3068 6.70195C22.6191 6.72886 21.9314 6.79612 21.2707 6.90375C21.1628 6.17726 21.0684 5.43732 20.9606 4.71084H20.9471ZM19.6796 9.15048C19.8144 10.1595 19.9627 11.155 20.0976 12.1641C19.1941 12.756 18.4795 13.7112 18.6413 14.7202C14.7982 15.218 10.8608 16.5902 12.5733 20.2361C9.88997 20.8415 7.92126 22.1465 8.63593 24.9179C7.89429 24.9717 7.16614 25.0121 6.4245 25.0794C7.23356 17.7203 12.5868 11.1012 19.693 9.16393L19.6796 9.15048ZM4.49625 27.1781C5.08956 26.909 6.1683 26.9898 6.82903 26.9359C8.51457 26.788 10.2001 26.6938 11.8856 26.6131C15.041 26.4516 18.2233 26.4651 21.3786 26.4113C25.1677 26.3574 28.9163 26.4516 32.6919 26.5996C35.2 26.6938 37.7215 26.64 40.2431 26.788C41.0522 26.8418 43.358 26.6669 43.9108 27.1512C44.3019 27.4875 44.5446 28.7253 44.7064 29.7208C30.6693 29.5863 16.8344 29.3845 2.81071 30.1917C2.91859 28.8463 3.1613 27.797 4.50973 27.1781H4.49625ZM36.2652 72.6777C36.0765 73.7809 36.0899 75.4895 35.6719 76.6868C35.5506 76.7003 35.4022 76.7137 35.173 76.6868C34.4718 76.6196 33.6897 76.7406 32.9751 76.7541C28.8219 76.8617 24.6553 76.929 20.5021 76.929C18.5738 76.929 16.6321 76.929 14.7039 76.8483C14.1915 76.8214 13.4363 76.9155 12.9509 76.7406C12.8565 76.7003 12.7891 76.6868 12.7217 76.6734C12.3576 75.7854 12.4115 74.0365 12.3037 73.2562C12.007 71.2382 11.7103 69.2336 11.4137 67.2156C9.6877 55.4438 7.98868 43.672 6.26269 31.9003C17.9805 31.3621 29.5905 31.4563 41.3084 31.5774C40.297 45.3537 38.5441 59.0628 36.2652 72.6911V72.6777Z" fill="#2C514E"/>
<path d="M12.8649 49.3448C12.9863 55.0203 18.447 60.4268 24.2313 60.0368C29.6651 59.6602 35.1124 54.6437 34.6404 49.0085C34.1416 43.1447 28.546 38.9755 22.8965 39.0562C17.3818 39.7152 12.7301 43.4137 12.8649 49.3448ZM32.5101 47.7174C33.8314 52.4246 29.8539 56.8628 25.4179 57.9253C20.6178 59.0685 15.5751 55.0203 14.8874 50.3265C14.1324 45.1352 17.9886 41.5174 22.8965 40.9391C27.0763 40.8853 31.337 43.5482 32.5101 47.7174Z" fill="#2C514E"/>
</g>
<defs>
<clipPath id="clip0_2568_178">
<rect width="45.8567" height="79" fill="white" transform="translate(0.837891)"/>
</clipPath>
</defs>
</svg>
